<mxfile host="app.diagrams.net" modified="2020-09-27T19:46:42.039Z" agent="5.0 (Macintosh; Intel Mac OS X 10_15_6) AppleWebKit/605.1.15 (KHTML, like Gecko) Version/14.0 Safari/605.1.15" etag="ire_nmMKXHtJjK_bOm5q" version="13.7.3" type="github">
  <diagram id="VKM3WrDQ3vUe6gYiDQwQ" name="Page-1">
    <mxGraphModel dx="923" dy="575" grid="1" gridSize="10" guides="1" tooltips="1" connect="1" arrows="1" fold="1" page="1" pageScale="1" pageWidth="827" pageHeight="1169" math="0" shadow="0">
      <root>
        <mxCell id="0" />
        <mxCell id="1" parent="0" />
        <mxCell id="WQhq4CdpYKCimS7mzM1O-2" value="Pets" style="shape=table;startSize=30;container=1;collapsible=1;childLayout=tableLayout;fixedRows=1;rowLines=0;fontStyle=1;align=center;resizeLast=1;" vertex="1" parent="1">
          <mxGeometry x="70" y="80" width="180" height="160" as="geometry" />
        </mxCell>
        <mxCell id="WQhq4CdpYKCimS7mzM1O-3" value="" style="shape=partialRectangle;collapsible=0;dropTarget=0;pointerEvents=0;fillColor=none;top=0;left=0;bottom=1;right=0;points=[[0,0.5],[1,0.5]];portConstraint=eastwest;" vertex="1" parent="WQhq4CdpYKCimS7mzM1O-2">
          <mxGeometry y="30" width="180" height="30" as="geometry" />
        </mxCell>
        <mxCell id="WQhq4CdpYKCimS7mzM1O-4" value="PK" style="shape=partialRectangle;connectable=0;fillColor=none;top=0;left=0;bottom=0;right=0;fontStyle=1;overflow=hidden;" vertex="1" parent="WQhq4CdpYKCimS7mzM1O-3">
          <mxGeometry width="30" height="30" as="geometry" />
        </mxCell>
        <mxCell id="WQhq4CdpYKCimS7mzM1O-5" value="PetIDNumber" style="shape=partialRectangle;connectable=0;fillColor=none;top=0;left=0;bottom=0;right=0;align=left;spacingLeft=6;fontStyle=5;overflow=hidden;" vertex="1" parent="WQhq4CdpYKCimS7mzM1O-3">
          <mxGeometry x="30" width="150" height="30" as="geometry" />
        </mxCell>
        <mxCell id="WQhq4CdpYKCimS7mzM1O-6" value="" style="shape=partialRectangle;collapsible=0;dropTarget=0;pointerEvents=0;fillColor=none;top=0;left=0;bottom=0;right=0;points=[[0,0.5],[1,0.5]];portConstraint=eastwest;" vertex="1" parent="WQhq4CdpYKCimS7mzM1O-2">
          <mxGeometry y="60" width="180" height="30" as="geometry" />
        </mxCell>
        <mxCell id="WQhq4CdpYKCimS7mzM1O-7" value="" style="shape=partialRectangle;connectable=0;fillColor=none;top=0;left=0;bottom=0;right=0;editable=1;overflow=hidden;" vertex="1" parent="WQhq4CdpYKCimS7mzM1O-6">
          <mxGeometry width="30" height="30" as="geometry" />
        </mxCell>
        <mxCell id="WQhq4CdpYKCimS7mzM1O-8" value="Name" style="shape=partialRectangle;connectable=0;fillColor=none;top=0;left=0;bottom=0;right=0;align=left;spacingLeft=6;overflow=hidden;" vertex="1" parent="WQhq4CdpYKCimS7mzM1O-6">
          <mxGeometry x="30" width="150" height="30" as="geometry" />
        </mxCell>
        <mxCell id="WQhq4CdpYKCimS7mzM1O-9" value="" style="shape=partialRectangle;collapsible=0;dropTarget=0;pointerEvents=0;fillColor=none;top=0;left=0;bottom=0;right=0;points=[[0,0.5],[1,0.5]];portConstraint=eastwest;" vertex="1" parent="WQhq4CdpYKCimS7mzM1O-2">
          <mxGeometry y="90" width="180" height="30" as="geometry" />
        </mxCell>
        <mxCell id="WQhq4CdpYKCimS7mzM1O-10" value="" style="shape=partialRectangle;connectable=0;fillColor=none;top=0;left=0;bottom=0;right=0;editable=1;overflow=hidden;" vertex="1" parent="WQhq4CdpYKCimS7mzM1O-9">
          <mxGeometry width="30" height="30" as="geometry" />
        </mxCell>
        <mxCell id="WQhq4CdpYKCimS7mzM1O-11" value="Breed" style="shape=partialRectangle;connectable=0;fillColor=none;top=0;left=0;bottom=0;right=0;align=left;spacingLeft=6;overflow=hidden;" vertex="1" parent="WQhq4CdpYKCimS7mzM1O-9">
          <mxGeometry x="30" width="150" height="30" as="geometry" />
        </mxCell>
        <mxCell id="WQhq4CdpYKCimS7mzM1O-12" value="" style="shape=partialRectangle;collapsible=0;dropTarget=0;pointerEvents=0;fillColor=none;top=0;left=0;bottom=0;right=0;points=[[0,0.5],[1,0.5]];portConstraint=eastwest;" vertex="1" parent="WQhq4CdpYKCimS7mzM1O-2">
          <mxGeometry y="120" width="180" height="30" as="geometry" />
        </mxCell>
        <mxCell id="WQhq4CdpYKCimS7mzM1O-13" value="" style="shape=partialRectangle;connectable=0;fillColor=none;top=0;left=0;bottom=0;right=0;editable=1;overflow=hidden;" vertex="1" parent="WQhq4CdpYKCimS7mzM1O-12">
          <mxGeometry width="30" height="30" as="geometry" />
        </mxCell>
        <mxCell id="WQhq4CdpYKCimS7mzM1O-14" value="Enclosure number" style="shape=partialRectangle;connectable=0;fillColor=none;top=0;left=0;bottom=0;right=0;align=left;spacingLeft=6;overflow=hidden;" vertex="1" parent="WQhq4CdpYKCimS7mzM1O-12">
          <mxGeometry x="30" width="150" height="30" as="geometry" />
        </mxCell>
        <mxCell id="WQhq4CdpYKCimS7mzM1O-15" value="Enclosure" style="shape=table;startSize=30;container=1;collapsible=1;childLayout=tableLayout;fixedRows=1;rowLines=0;fontStyle=1;align=center;resizeLast=1;" vertex="1" parent="1">
          <mxGeometry x="380" y="80" width="180" height="150" as="geometry" />
        </mxCell>
        <mxCell id="WQhq4CdpYKCimS7mzM1O-16" value="" style="shape=partialRectangle;collapsible=0;dropTarget=0;pointerEvents=0;fillColor=none;top=0;left=0;bottom=1;right=0;points=[[0,0.5],[1,0.5]];portConstraint=eastwest;" vertex="1" parent="WQhq4CdpYKCimS7mzM1O-15">
          <mxGeometry y="30" width="180" height="20" as="geometry" />
        </mxCell>
        <mxCell id="WQhq4CdpYKCimS7mzM1O-17" value="PK" style="shape=partialRectangle;connectable=0;fillColor=none;top=0;left=0;bottom=0;right=0;fontStyle=1;overflow=hidden;" vertex="1" parent="WQhq4CdpYKCimS7mzM1O-16">
          <mxGeometry width="30" height="20" as="geometry" />
        </mxCell>
        <mxCell id="WQhq4CdpYKCimS7mzM1O-18" value="EnclosureNumber" style="shape=partialRectangle;connectable=0;fillColor=none;top=0;left=0;bottom=0;right=0;align=left;spacingLeft=6;fontStyle=5;overflow=hidden;" vertex="1" parent="WQhq4CdpYKCimS7mzM1O-16">
          <mxGeometry x="30" width="150" height="20" as="geometry" />
        </mxCell>
        <mxCell id="WQhq4CdpYKCimS7mzM1O-19" value="" style="shape=partialRectangle;collapsible=0;dropTarget=0;pointerEvents=0;fillColor=none;top=0;left=0;bottom=0;right=0;points=[[0,0.5],[1,0.5]];portConstraint=eastwest;" vertex="1" parent="WQhq4CdpYKCimS7mzM1O-15">
          <mxGeometry y="50" width="180" height="30" as="geometry" />
        </mxCell>
        <mxCell id="WQhq4CdpYKCimS7mzM1O-20" value="" style="shape=partialRectangle;connectable=0;fillColor=none;top=0;left=0;bottom=0;right=0;editable=1;overflow=hidden;" vertex="1" parent="WQhq4CdpYKCimS7mzM1O-19">
          <mxGeometry width="30" height="30" as="geometry" />
        </mxCell>
        <mxCell id="WQhq4CdpYKCimS7mzM1O-21" value="Location" style="shape=partialRectangle;connectable=0;fillColor=none;top=0;left=0;bottom=0;right=0;align=left;spacingLeft=6;overflow=hidden;" vertex="1" parent="WQhq4CdpYKCimS7mzM1O-19">
          <mxGeometry x="30" width="150" height="30" as="geometry" />
        </mxCell>
        <mxCell id="WQhq4CdpYKCimS7mzM1O-22" value="" style="shape=partialRectangle;collapsible=0;dropTarget=0;pointerEvents=0;fillColor=none;top=0;left=0;bottom=0;right=0;points=[[0,0.5],[1,0.5]];portConstraint=eastwest;" vertex="1" parent="WQhq4CdpYKCimS7mzM1O-15">
          <mxGeometry y="80" width="180" height="30" as="geometry" />
        </mxCell>
        <mxCell id="WQhq4CdpYKCimS7mzM1O-23" value="" style="shape=partialRectangle;connectable=0;fillColor=none;top=0;left=0;bottom=0;right=0;editable=1;overflow=hidden;" vertex="1" parent="WQhq4CdpYKCimS7mzM1O-22">
          <mxGeometry width="30" height="30" as="geometry" />
        </mxCell>
        <mxCell id="WQhq4CdpYKCimS7mzM1O-24" value="Type of enclosureÂ " style="shape=partialRectangle;connectable=0;fillColor=none;top=0;left=0;bottom=0;right=0;align=left;spacingLeft=6;overflow=hidden;" vertex="1" parent="WQhq4CdpYKCimS7mzM1O-22">
          <mxGeometry x="30" width="150" height="30" as="geometry" />
        </mxCell>
        <mxCell id="WQhq4CdpYKCimS7mzM1O-25" value="" style="shape=partialRectangle;collapsible=0;dropTarget=0;pointerEvents=0;fillColor=none;top=0;left=0;bottom=0;right=0;points=[[0,0.5],[1,0.5]];portConstraint=eastwest;" vertex="1" parent="WQhq4CdpYKCimS7mzM1O-15">
          <mxGeometry y="110" width="180" height="30" as="geometry" />
        </mxCell>
        <mxCell id="WQhq4CdpYKCimS7mzM1O-26" value="" style="shape=partialRectangle;connectable=0;fillColor=none;top=0;left=0;bottom=0;right=0;editable=1;overflow=hidden;" vertex="1" parent="WQhq4CdpYKCimS7mzM1O-25">
          <mxGeometry width="30" height="30" as="geometry" />
        </mxCell>
        <mxCell id="WQhq4CdpYKCimS7mzM1O-27" value="" style="shape=partialRectangle;connectable=0;fillColor=none;top=0;left=0;bottom=0;right=0;align=left;spacingLeft=6;overflow=hidden;" vertex="1" parent="WQhq4CdpYKCimS7mzM1O-25">
          <mxGeometry x="30" width="150" height="30" as="geometry" />
        </mxCell>
      </root>
    </mxGraphModel>
  </diagram>
</mxfile>
